<svg viewBox="0 0 94 108" fill="none" xmlns="http://www.w3.org/2000/svg">
<g clip-path="url(#clip0_2_343)" filter="url(#filter0_d_2_343)">
<g clip-path="url(#clip1_2_343)">
<rect x="20.5" y="34.5" width="53" height="53" fill="#C778DD" stroke="#C778DD"/>
<path d="M58.4325 52.9958H51.25V54.9933H58.4608L58.4325 52.9958ZM56.9167 66.7375C56.3718 67.0985 55.7283 67.2817 55.075 67.2617C54.6425 67.3068 54.2054 67.2621 53.791 67.1305C53.3766 66.9988 52.9938 66.7831 52.6667 66.4967C52.0618 65.8108 51.7468 64.9169 51.7883 64.0033H61.1667C61.2343 63.0521 61.153 62.0962 60.9258 61.17C60.7061 60.2889 60.3215 59.4573 59.7925 58.7192C59.26 58.0032 58.5722 57.4171 57.7808 57.005C56.9003 56.5709 55.9291 56.3523 54.9475 56.3675C54.0243 56.3608 53.109 56.539 52.2558 56.8917C51.4745 57.221 50.7666 57.7026 50.1733 58.3083C49.5817 58.9262 49.1236 59.6592 48.8275 60.4617C48.5097 61.328 48.3514 62.2448 48.36 63.1675C48.3454 64.1034 48.499 65.0342 48.8133 65.9158C49.0803 66.7142 49.5042 67.4511 50.06 68.0833C50.635 68.7041 51.3418 69.1881 52.1283 69.5C53.0054 69.8342 53.9382 69.9977 54.8767 69.9817C56.1933 70.0227 57.4933 69.678 58.6167 68.99C59.7513 68.1837 60.5682 67.006 60.9258 65.6608H57.795C57.6274 66.1059 57.319 66.4839 56.9167 66.7375ZM52.0575 60.9008C52.1678 60.5476 52.3508 60.2215 52.5948 59.9433C52.8388 59.6651 53.1383 59.4412 53.4742 59.2858C53.9189 59.0856 54.4033 58.9888 54.8908 59.0025C55.243 58.9724 55.5976 59.0189 55.9301 59.1387C56.2627 59.2585 56.5654 59.4489 56.8175 59.6967C57.2989 60.2859 57.6078 60.9969 57.71 61.7508H51.8308C51.8538 61.463 51.906 61.1781 51.9867 60.9008H52.0575ZM44.5633 60.2208C45.2844 59.9206 45.9109 59.4311 46.3767 58.8042C46.8048 58.1384 47.0175 57.3568 46.9858 56.5658C47.0136 55.8445 46.8729 55.1267 46.575 54.4692C46.3247 53.8996 45.9229 53.4095 45.4133 53.0525C44.8731 52.6813 44.2596 52.4301 43.6142 52.3158C42.8503 52.1556 42.0712 52.0796 41.2908 52.0892H32.8333V69.9108H41.475C42.2636 69.9114 43.0491 69.8114 43.8125 69.6133C44.536 69.4262 45.2215 69.1146 45.8383 68.6925C46.4358 68.2784 46.9223 67.7238 47.255 67.0775C47.6232 66.3547 47.8035 65.5508 47.7792 64.74C47.806 63.7352 47.5242 62.7464 46.9717 61.9067C46.3775 61.0622 45.4962 60.463 44.4925 60.2208H44.5633ZM36.7575 55.135H40.4267C40.7638 55.1346 41.1003 55.163 41.4325 55.22C41.7384 55.2653 42.0322 55.3713 42.2967 55.5317C42.5522 55.6762 42.7592 55.8931 42.8917 56.155C43.0557 56.4691 43.1339 56.821 43.1183 57.175C43.1447 57.4799 43.0981 57.7868 42.9823 58.0701C42.8665 58.3534 42.6849 58.605 42.4525 58.8042C41.9455 59.1527 41.3388 59.3268 40.7242 59.3H36.7575V55.135ZM43.6142 65.675C43.4686 65.9637 43.2485 66.2083 42.9767 66.3833C42.6938 66.5593 42.382 66.684 42.0558 66.7517C41.6932 66.8328 41.3223 66.8709 40.9508 66.865H36.7008V61.9775H40.9508C41.6801 61.9456 42.4004 62.1492 43.005 62.5583C43.2781 62.8035 43.4897 63.1095 43.6226 63.4516C43.7555 63.7937 43.806 64.1623 43.77 64.5275C43.8083 64.9169 43.7549 65.3099 43.6142 65.675Z" fill="#282C33"/>
</g>
</g>
<defs>
<filter id="filter0_d_2_343" x="-20" y="0" width="134" height="134" filterUnits="userSpaceOnUse" color-interpolation-filters="sRGB">
<feFlood flood-opacity="0" result="BackgroundImageFix"/>
<feColorMatrix in="SourceAlpha" type="matrix" values="0 0 0 0 0 0 0 0 0 0 0 0 0 0 0 0 0 0 127 0" result="hardAlpha"/>
<feOffset dy="6"/>
<feGaussianBlur stdDeviation="20"/>
<feComposite in2="hardAlpha" operator="out"/>
<feColorMatrix type="matrix" values="0 0 0 0 0.439216 0 0 0 0 0.564706 0 0 0 0 0.690196 0 0 0 0.2 0"/>
<feBlend mode="normal" in2="BackgroundImageFix" result="effect1_dropShadow_2_343"/>
<feBlend mode="normal" in="SourceGraphic" in2="effect1_dropShadow_2_343" result="shape"/>
</filter>
<clipPath id="clip0_2_343">
<rect width="54" height="54" fill="white" transform="translate(20 34)"/>
</clipPath>
<clipPath id="clip1_2_343">
<rect width="54" height="54" fill="white" transform="translate(20 34)"/>
</clipPath>
</defs>
</svg>
