<svg width="75" height="94" viewBox="0 0 75 94" fill="none" xmlns="http://www.w3.org/2000/svg">
<g clip-path="url(#clip0_313_1283)" filter="url(#filter0_d_313_1283)">
<rect x="15" y="34" width="45" height="45" rx="1" fill="#C778DD"/>
<path d="M28.6464 53.5058L28.968 57.2142H37V53.5058H28.6464ZM36.9999 46H28L28.3263 49.7084H36.9999V46ZM36.9999 66.9952V63.137L36.9842 63.1413L32.9869 62.0261L32.7314 59.0684H29.1284L29.6312 64.8912L36.9834 67L36.9999 66.9952Z" fill="#282C33"/>
<path d="M41.4241 57.2152L41.0071 62.0251L37 63.1416V67L44.3655 64.8929L45.2637 54.5025L45.3513 53.5065L46 46H36.9999V49.7084L42.0626 49.7087L41.7357 53.5065L37 53.5058V57.2142L41.4241 57.2152Z" fill="#282C33"/>
</g>
<defs>
<filter id="filter0_d_313_1283" x="-25" y="0" width="125" height="125" filterUnits="userSpaceOnUse" color-interpolation-filters="sRGB">
<feFlood flood-opacity="0" result="BackgroundImageFix"/>
<feColorMatrix in="SourceAlpha" type="matrix" values="0 0 0 0 0 0 0 0 0 0 0 0 0 0 0 0 0 0 127 0" result="hardAlpha"/>
<feOffset dy="6"/>
<feGaussianBlur stdDeviation="20"/>
<feComposite in2="hardAlpha" operator="out"/>
<feColorMatrix type="matrix" values="0 0 0 0 0.439216 0 0 0 0 0.564706 0 0 0 0 0.690196 0 0 0 0.2 0"/>
<feBlend mode="normal" in2="BackgroundImageFix" result="effect1_dropShadow_313_1283"/>
<feBlend mode="normal" in="SourceGraphic" in2="effect1_dropShadow_313_1283" result="shape"/>
</filter>
<clipPath id="clip0_313_1283">
<rect width="45" height="45" fill="white" transform="translate(15 34)"/>
</clipPath>
</defs>
</svg>
