<svg width="75" height="94" viewBox="0 0 75 94" fill="none" xmlns="http://www.w3.org/2000/svg">
<g clip-path="url(#clip0_313_1326)" filter="url(#filter0_d_313_1326)">
<rect x="15" y="34" width="45" height="45" fill="#C778DD"/>
<mask id="mask0_313_1326" style="mask-type:luminance" maskUnits="userSpaceOnUse" x="23" y="42" width="29" height="29">
<path d="M23 42H52V71H23V42Z" fill="white"/>
</mask>
<g mask="url(#mask0_313_1326)">
<path d="M51.4525 55.2086L38.7913 42.5473C38.5302 42.286 38.1975 42.108 37.8352 42.0359C37.4729 41.9638 37.0974 42.0008 36.7562 42.1423C36.5297 42.2362 36.3239 42.3738 36.1505 42.5473L33.5224 45.1755L36.8574 48.5105C37.6332 48.2386 38.5213 48.4243 39.1393 49.0425C39.4335 49.3372 39.6389 49.7087 39.732 50.1147C39.8251 50.5206 39.8021 50.9445 39.6658 51.338L42.8803 54.5525C43.6579 54.2842 44.555 54.4572 45.1758 55.0798C45.4867 55.3906 45.6985 55.7867 45.7842 56.2179C45.8699 56.6491 45.8257 57.0961 45.6573 57.5022C45.4315 58.0467 44.9988 58.4792 44.4542 58.7047C43.9096 58.9302 43.2977 58.9302 42.7531 58.7047C42.4834 58.5929 42.2384 58.4292 42.032 58.2227C41.3795 57.5702 41.2183 56.6096 41.5482 55.8057L38.5503 52.8078V60.6968C38.7679 60.8045 38.9668 60.9465 39.1393 61.1173C39.5561 61.5341 39.7902 62.0994 39.7902 62.6888C39.7902 63.2782 39.5561 63.8434 39.1393 64.2602C38.7225 64.677 38.1573 64.9111 37.5679 64.9111C36.9784 64.9111 36.4132 64.677 35.9964 64.2602C35.6853 63.9495 35.4735 63.5535 35.3876 63.1224C35.3018 62.6912 35.3458 62.2443 35.5141 61.8381C35.6259 61.5685 35.7898 61.3235 35.9964 61.1173C36.2112 60.9035 36.4495 60.7412 36.7242 60.6325V52.6701C36.4517 52.5587 36.2042 52.3938 35.9964 52.1853C35.6844 51.8736 35.4722 51.4761 35.387 51.0433C35.3018 50.6106 35.3474 50.1623 35.5179 49.7556L32.2283 46.4678L23.5464 55.1406C23.2851 55.4018 23.107 55.7346 23.0349 56.097C22.9628 56.4594 22.9997 56.835 23.1411 57.1764C23.2351 57.403 23.3728 57.6089 23.5464 57.7823L36.2085 70.4426C36.3819 70.616 36.5877 70.7536 36.8142 70.8476C37.2719 71.037 37.786 71.037 38.2436 70.8476C38.4701 70.7536 38.6759 70.616 38.8493 70.4426L51.4525 57.8593C51.6261 57.6859 51.7637 57.48 51.8577 57.2534C51.9516 57.0268 52 56.7839 52.0001 56.5385C52.0001 56.2932 51.9517 56.0502 51.8578 55.8236C51.7638 55.5969 51.6261 55.391 51.4525 55.2176" fill="#282C33"/>
</g>
</g>
<defs>
<filter id="filter0_d_313_1326" x="-25" y="0" width="125" height="125" filterUnits="userSpaceOnUse" color-interpolation-filters="sRGB">
<feFlood flood-opacity="0" result="BackgroundImageFix"/>
<feColorMatrix in="SourceAlpha" type="matrix" values="0 0 0 0 0 0 0 0 0 0 0 0 0 0 0 0 0 0 127 0" result="hardAlpha"/>
<feOffset dy="6"/>
<feGaussianBlur stdDeviation="20"/>
<feComposite in2="hardAlpha" operator="out"/>
<feColorMatrix type="matrix" values="0 0 0 0 0.439216 0 0 0 0 0.564706 0 0 0 0 0.690196 0 0 0 0.2 0"/>
<feBlend mode="normal" in2="BackgroundImageFix" result="effect1_dropShadow_313_1326"/>
<feBlend mode="normal" in="SourceGraphic" in2="effect1_dropShadow_313_1326" result="shape"/>
</filter>
<clipPath id="clip0_313_1326">
<rect width="45" height="45" fill="white" transform="translate(15 34)"/>
</clipPath>
</defs>
</svg>
