<svg width="75" height="94" viewBox="0 0 75 94" fill="none" xmlns="http://www.w3.org/2000/svg">
<g clip-path="url(#clip0_313_1227)" filter="url(#filter0_d_313_1227)">
<rect x="15" y="34" width="45" height="45" rx="1" fill="#C778DD"/>
<path d="M25 65.4018V47.299C25 47.1758 25.0519 47.1056 25.1732 47.1056C25.4674 47.1056 25.7445 47.1056 26.1426 47.0879C26.5581 47.0703 26.9909 47.0703 27.4584 47.0528C27.9258 47.0351 28.4278 47.0351 28.9645 47.0175C29.5011 47 30.0204 47 30.5398 47C31.9594 47 33.1366 47.1758 34.1062 47.5453C34.9752 47.8452 35.7676 48.338 36.4259 48.9879C36.9837 49.5567 37.4148 50.2406 37.6897 50.9935C37.9494 51.7324 38.0879 52.4889 38.0879 53.2806C38.0879 54.7935 37.7417 56.0425 37.0491 57.0278C36.3566 58.0129 35.3872 58.7518 34.262 59.174C33.0846 59.6139 31.7862 59.7722 30.3668 59.7722C29.9513 59.7722 29.6742 59.7722 29.5011 59.7546C29.3281 59.7369 29.0856 59.7369 28.7568 59.7369V65.3841C28.774 65.5074 28.6875 65.6129 28.5662 65.6306H25.2077C25.0693 65.6306 25 65.5601 25 65.4018ZM28.774 50.5008V56.4119C29.0164 56.4296 29.2414 56.4472 29.4491 56.4472H30.3668C31.0419 56.4472 31.7171 56.3417 32.3575 56.1306C32.9116 55.9722 33.3963 55.6379 33.7772 55.198C34.1407 54.7583 34.3139 54.1601 34.3139 53.3861C34.3302 52.8363 34.192 52.2932 33.9156 51.8203C33.6214 51.3629 33.2059 51.0111 32.7039 50.8175C32.0633 50.5536 31.3708 50.448 30.661 50.4657C30.211 50.4657 29.8127 50.4657 29.4839 50.4833C29.1375 50.4657 28.8952 50.4833 28.774 50.5008ZM48.8905 55.3389C48.3712 55.0574 47.8173 54.8639 47.2286 54.7407C46.588 54.6 45.9476 54.5119 45.2896 54.5119C44.9434 54.4944 44.5799 54.5472 44.2509 54.6351C44.0259 54.6879 43.8354 54.8111 43.7143 54.9869C43.6276 55.1278 43.5757 55.3036 43.5757 55.4619C43.5757 55.6203 43.645 55.7786 43.7489 55.9194C43.9047 56.1129 44.1124 56.2712 44.3375 56.3944C44.7389 56.6057 45.149 56.7994 45.5666 56.975C46.5015 57.2917 47.4018 57.7314 48.2327 58.2591C48.804 58.6286 49.2715 59.1212 49.6003 59.7194C49.8773 60.2824 50.0158 60.898 49.9986 61.5314C50.0158 62.3583 49.7735 63.1851 49.3234 63.8712C48.8405 64.5735 48.1667 65.1176 47.3844 65.4369C46.5361 65.8064 45.4973 66 44.2509 66C43.4546 66 42.6756 65.9296 41.8966 65.7712C41.286 65.6641 40.6922 65.4748 40.1307 65.2083C40.0095 65.1379 39.923 65.0147 39.9402 64.874V61.8129C39.9402 61.7601 39.9576 61.6897 40.0095 61.6546C40.0614 61.6194 40.1134 61.6369 40.1653 61.6722C40.8405 62.0768 41.5502 62.3583 42.312 62.5341C42.9698 62.7101 43.6624 62.798 44.3548 62.798C45.0127 62.798 45.4801 62.7101 45.7918 62.5518C46.0686 62.4286 46.2592 62.1296 46.2592 61.8129C46.2592 61.5667 46.1206 61.3379 45.8437 61.1091C45.5666 60.8806 44.9953 60.6167 44.147 60.2824C43.2768 59.9707 42.4504 59.5449 41.6888 59.0157C41.1463 58.6228 40.6968 58.1119 40.373 57.5203C40.096 56.9574 39.9576 56.3417 39.9749 55.7258C39.9749 54.9694 40.1827 54.248 40.5634 53.5972C40.9963 52.8935 41.6369 52.3306 42.3812 51.9786C43.195 51.5564 44.2163 51.3629 45.4454 51.3629C46.1553 51.3629 46.8824 51.4157 47.5921 51.5212C48.1115 51.5917 48.6135 51.7324 49.0809 51.9258C49.1502 51.9435 49.2195 52.0139 49.2541 52.0841C49.2715 52.1546 49.2887 52.225 49.2887 52.2953V55.1629C49.2887 55.2333 49.2541 55.3036 49.2022 55.3389C49.0464 55.374 48.9599 55.374 48.8905 55.3389Z" fill="#282C33"/>
</g>
<defs>
<filter id="filter0_d_313_1227" x="-25" y="0" width="125" height="125" filterUnits="userSpaceOnUse" color-interpolation-filters="sRGB">
<feFlood flood-opacity="0" result="BackgroundImageFix"/>
<feColorMatrix in="SourceAlpha" type="matrix" values="0 0 0 0 0 0 0 0 0 0 0 0 0 0 0 0 0 0 127 0" result="hardAlpha"/>
<feOffset dy="6"/>
<feGaussianBlur stdDeviation="20"/>
<feComposite in2="hardAlpha" operator="out"/>
<feColorMatrix type="matrix" values="0 0 0 0 0.439216 0 0 0 0 0.564706 0 0 0 0 0.690196 0 0 0 0.2 0"/>
<feBlend mode="normal" in2="BackgroundImageFix" result="effect1_dropShadow_313_1227"/>
<feBlend mode="normal" in="SourceGraphic" in2="effect1_dropShadow_313_1227" result="shape"/>
</filter>
<clipPath id="clip0_313_1227">
<rect width="45" height="45" fill="white" transform="translate(15 34)"/>
</clipPath>
</defs>
</svg>
