<svg width="75" height="94" viewBox="0 0 75 94" fill="none" xmlns="http://www.w3.org/2000/svg">
<g clip-path="url(#clip0_313_1312)" filter="url(#filter0_d_313_1312)">
<rect x="15" y="34" width="45" height="45" fill="#C778DD"/>
<path d="M37.5 59.4001C38.8557 59.4001 39.9545 58.3255 39.9545 57.0001C39.9545 55.6747 38.8557 54.6001 37.5 54.6001C36.1445 54.6001 35.0455 55.6747 35.0455 57.0001C35.0455 58.3255 36.1445 59.4001 37.5 59.4001Z" fill="#282C33"/>
<path d="M37.5 59.4001C38.8557 59.4001 39.9545 58.3255 39.9545 57.0001C39.9545 55.6747 38.8557 54.6001 37.5 54.6001C36.1445 54.6001 35.0455 55.6747 35.0455 57.0001C35.0455 58.3255 36.1445 59.4001 37.5 59.4001Z" stroke="#282C33"/>
<path d="M37.5003 52.2C40.8818 52.2 44.0231 52.6526 46.3916 53.4133C49.2454 54.3297 51 55.7188 51 56.9766C51 58.2874 49.1405 59.7631 46.0759 60.7102C43.759 61.4263 40.7102 61.8 37.5003 61.8C34.2092 61.8 31.0928 61.4492 28.7497 60.7023C25.7854 59.7572 24 58.2625 24 56.9766C24 55.729 25.6753 54.3506 28.489 53.4356C30.8664 52.6624 34.0857 52.2 37.5003 52.2Z" stroke="#282C33"/>
<path d="M33.4267 54.4227C34.9739 51.4783 36.796 48.9866 38.5267 47.3338C40.6118 45.3421 42.5963 44.5621 43.666 45.2391C44.7809 45.9447 45.1853 48.3586 44.5887 51.5369C44.1381 53.9397 43.0607 56.7957 41.5919 59.5908C40.0861 62.4565 38.3619 64.9813 36.6548 66.6189C34.4947 68.6913 32.4063 69.4413 31.3127 68.7491C30.2515 68.078 29.8457 65.8768 30.3548 62.9342C30.785 60.4477 31.865 57.396 33.4267 54.4227Z" stroke="#282C33"/>
<path d="M33.4153 59.581C31.8679 56.6378 30.8143 53.6582 30.3746 51.1854C29.8452 48.2059 30.2195 45.9279 31.2855 45.2484C32.3964 44.5401 34.4979 45.3617 36.7029 47.5178C38.3701 49.1479 40.082 51.5999 41.551 54.3943C43.0571 57.2593 44.1859 60.1619 44.625 62.6046C45.1806 65.6958 44.7309 68.0577 43.6412 68.7523C42.5839 69.4264 40.6491 68.7128 38.586 66.7576C36.8429 65.1058 34.978 62.5535 33.4153 59.581Z" stroke="#282C33"/>
</g>
<defs>
<filter id="filter0_d_313_1312" x="-25" y="0" width="125" height="125" filterUnits="userSpaceOnUse" color-interpolation-filters="sRGB">
<feFlood flood-opacity="0" result="BackgroundImageFix"/>
<feColorMatrix in="SourceAlpha" type="matrix" values="0 0 0 0 0 0 0 0 0 0 0 0 0 0 0 0 0 0 127 0" result="hardAlpha"/>
<feOffset dy="6"/>
<feGaussianBlur stdDeviation="20"/>
<feComposite in2="hardAlpha" operator="out"/>
<feColorMatrix type="matrix" values="0 0 0 0 0.439216 0 0 0 0 0.564706 0 0 0 0 0.690196 0 0 0 0.2 0"/>
<feBlend mode="normal" in2="BackgroundImageFix" result="effect1_dropShadow_313_1312"/>
<feBlend mode="normal" in="SourceGraphic" in2="effect1_dropShadow_313_1312" result="shape"/>
</filter>
<clipPath id="clip0_313_1312">
<rect width="45" height="45" fill="white" transform="translate(15 34)"/>
</clipPath>
</defs>
</svg>
