<svg width="45" height="45" viewBox="0 0 45 45" fill="none" xmlns="http://www.w3.org/2000/svg">
<g clip-path="url(#clip0_313_1307)">
<rect x="0.5" y="0.5" width="44" height="44" rx="0.5" stroke="#C778DD"/>
<path d="M18.194 25.6973C18.5051 26.2891 18.8283 26.8648 19.1603 27.4204C18.0625 27.3315 17.015 27.1963 16.0449 27.0133C16.3381 25.9433 16.7259 24.8092 17.1982 23.651C17.503 24.331 17.8354 25.0153 18.194 25.6973ZM18.194 25.6973L18.4153 25.581L18.194 25.6973C18.194 25.6973 18.194 25.6973 18.194 25.6973ZM13.489 19.4356C14.1057 19.235 14.7791 19.0554 15.4979 18.8993L13.7497 26.7023C10.7854 25.7572 9 24.2625 9 22.9766C9 21.729 10.6753 20.3506 13.489 19.4356ZM15.5535 26.915C14.9404 26.7852 14.362 26.6351 13.8256 26.4641C12.3635 25.9979 11.2058 25.4002 10.4193 24.7719C9.6234 24.1362 9.25 23.5052 9.25 22.9766C9.25 22.4659 9.59753 21.8735 10.3453 21.2768C11.0854 20.6862 12.178 20.1248 13.5663 19.6733L13.5663 19.6733C14.178 19.4744 14.8472 19.296 15.5624 19.1411C15.898 20.3736 16.3548 21.6821 16.921 23.0157C16.3522 24.3569 15.8911 25.6762 15.5535 26.915ZM17.1979 22.38C16.7284 21.2293 16.3443 20.1043 16.0531 19.0398C17.0222 18.8497 18.0669 18.7012 19.1612 18.6008C18.8334 19.1497 18.5139 19.7193 18.2054 20.3064L18.2054 20.3064C17.8433 20.9957 17.5068 21.6895 17.1979 22.38ZM19.484 18.071C18.229 18.173 17.0307 18.3372 15.9258 18.5553C15.8035 18.0686 15.7016 17.5963 15.6207 17.1416C15.3593 15.6702 15.3236 14.3849 15.4787 13.3931C15.6358 12.3889 15.9789 11.7403 16.4198 11.4592L16.4199 11.4592C16.8738 11.1698 17.5789 11.1661 18.4889 11.5402C19.39 11.9106 20.4404 12.6329 21.5282 13.6966L21.5282 13.6966C21.7465 13.9101 21.9658 14.1381 22.1854 14.3795C21.2688 15.427 20.3516 16.6756 19.484 18.071ZM20.103 18.0261C20.8865 16.7965 21.7049 15.6937 22.5196 14.757C23.3259 15.6918 24.1314 16.8 24.9024 18.0267C24.1201 17.9762 23.3169 17.95 22.5003 17.95C21.6878 17.95 20.8859 17.976 20.103 18.0261ZM25.519 18.0719C24.666 16.6826 23.7634 15.4269 22.855 14.3805C23.1381 14.0705 23.4201 13.7813 23.6994 13.5146L23.6994 13.5145C24.7274 12.5326 25.7187 11.8613 26.5707 11.5175C27.4308 11.1704 28.0977 11.1753 28.5323 11.4503C28.9964 11.7441 29.3596 12.4319 29.522 13.4984C29.6825 14.5519 29.6378 15.9205 29.343 17.4908L29.343 17.4908C29.2774 17.8407 29.1982 18.2006 29.1063 18.5689C27.9944 18.3445 26.7877 18.176 25.519 18.0719ZM26.7723 20.278C26.4705 19.7039 26.1583 19.1438 25.8381 18.6017C26.9466 18.7044 28.0015 18.8572 28.9793 19.0534C28.6866 20.12 28.2931 21.2486 27.8154 22.4013C27.4934 21.6955 27.1441 20.9852 26.7723 20.278ZM25.225 18.5504C25.6044 19.1785 25.9741 19.8341 26.3297 20.5107C26.7718 21.3517 27.1807 22.195 27.5486 23.0278C27.1937 23.8392 26.7991 24.6591 26.3706 25.4745C26.0119 26.1572 25.6412 26.8195 25.2618 27.4542C24.3657 27.5177 23.4404 27.55 22.5003 27.55C21.5709 27.55 20.6568 27.5219 19.7714 27.4648C19.3806 26.8256 19.0004 26.1568 18.6365 25.4647L18.6365 25.4647C18.2065 24.6467 17.8151 23.8263 17.4649 23.0155C17.8193 22.1938 18.2149 21.3636 18.648 20.5389C19.0107 19.8487 19.3884 19.184 19.7761 18.5498C20.6603 18.4843 21.5727 18.45 22.5003 18.45C23.4312 18.45 24.3432 18.4845 25.225 18.5504ZM15.9175 27.498C17.0238 27.7085 18.2245 27.8567 19.4809 27.9462C20.3583 29.3574 21.2884 30.6251 22.2138 31.683C21.9696 31.9524 21.7254 32.2048 21.4818 32.4385L21.6548 32.6189L21.4817 32.4385C20.4178 33.4593 19.3828 34.1429 18.4934 34.4877C17.5956 34.8357 16.895 34.8219 16.4464 34.5379L16.4463 34.5379C16.0054 34.259 15.6575 33.6282 15.4913 32.6515C15.327 31.6854 15.3498 30.4293 15.6012 28.9768L15.3548 28.9342L15.6012 28.9768C15.683 28.5035 15.7889 28.0091 15.9175 27.498ZM23.5267 13.3338C25.6118 11.3421 27.5963 10.5621 28.666 11.2391C29.7809 11.9447 30.1853 14.3586 29.5887 17.5369C29.5228 17.8886 29.4434 18.2501 29.3513 18.6196L23.5267 13.3338ZM29.4693 19.1567C30.1258 19.3022 30.7437 19.4678 31.3152 19.6513L31.3916 19.4133L31.3152 19.6513C32.724 20.1037 33.8471 20.6685 34.6124 21.2642C35.387 21.8671 35.75 22.4643 35.75 22.9766C35.75 23.5141 35.3624 24.1461 34.5349 24.7815C33.7174 25.4093 32.5157 26.0036 31.0021 26.4714C30.5253 26.6187 30.0165 26.7515 29.4807 26.8695C29.1411 25.6448 28.6683 24.3474 28.0941 23.0267C28.6659 21.6973 29.133 20.389 29.4693 19.1567ZM26.8132 25.7071C27.1722 25.024 27.5082 24.3367 27.8178 23.6527C28.2976 24.7964 28.6952 25.914 28.9902 26.9718C28.0199 27.1635 26.9709 27.3088 25.8714 27.4057C26.1933 26.8559 26.5079 26.2882 26.8132 25.7071ZM25.5567 27.9336C26.8139 27.8355 28.0146 27.6757 29.1191 27.456C29.2225 27.8643 29.3095 28.2626 29.3789 28.6488C29.6531 30.1742 29.6767 31.5075 29.5035 32.5356C29.3283 33.5762 28.9613 34.2518 28.5068 34.5415L28.5068 34.5415C28.0752 34.8167 27.4215 34.8334 26.5811 34.5078C25.7471 34.1846 24.7745 33.5395 23.758 32.5761L23.586 32.7576L23.758 32.5761C23.4692 32.3025 23.1768 32.0035 22.8826 31.6813C23.7973 30.6213 24.7002 29.3443 25.5567 27.9336ZM24.9438 27.9763C24.1678 29.2267 23.3599 30.3561 22.5471 31.3046C21.7225 30.356 20.8907 29.2333 20.0961 27.9851C20.8817 28.0286 21.6862 28.05 22.5003 28.05C23.3279 28.05 24.1457 28.0253 24.9438 27.9763ZM22.5 25.6501C23.9884 25.6501 25.2045 24.4689 25.2045 23.0001C25.2045 21.5313 23.9884 20.3501 22.5 20.3501C21.0117 20.3501 19.7955 21.5313 19.7955 23.0001C19.7955 24.4689 21.0117 25.6501 22.5 25.6501ZM24.7045 23.0001C24.7045 24.1822 23.7229 25.1501 22.5 25.1501C21.2772 25.1501 20.2955 24.1822 20.2955 23.0001C20.2955 21.818 21.2772 20.8501 22.5 20.8501C23.7229 20.8501 24.7045 21.818 24.7045 23.0001Z" fill="#C778DD" stroke="#282C33" stroke-width="0.5"/>
</g>
<defs>
<clipPath id="clip0_313_1307">
<rect width="45" height="45" fill="white"/>
</clipPath>
</defs>
</svg>
