<svg width="75" height="94" viewBox="0 0 75 94" fill="none" xmlns="http://www.w3.org/2000/svg">
<g clip-path="url(#clip0_488_685)" filter="url(#filter0_d_488_685)">
<rect x="15" y="34" width="45" height="45" fill="#C778DD"/>
<path d="M36.4488 64.1684C36.4315 64.2034 36.4141 64.2314 36.4488 64.1684ZM50.8496 59.0938C49.6866 59.0938 48.5397 59.3621 47.4968 59.8812C47.1558 59.1871 46.8032 58.5805 46.7454 58.1255C46.676 57.5947 46.6008 57.2798 46.6818 56.6498C46.7627 56.0199 47.1269 55.1274 47.1211 55.0633C47.1153 54.9991 47.0402 54.6783 46.2945 54.6725C45.5488 54.6666 44.9071 54.8183 44.8319 55.0166C44.7 55.3789 44.5975 55.7515 44.5256 56.1307C44.3926 56.8131 43.0353 59.2513 42.2665 60.5228C42.0121 60.027 41.7982 59.5896 41.752 59.2396C41.6826 58.7088 41.6075 58.3938 41.6884 57.7639C41.7693 57.1339 42.1335 56.2415 42.1277 56.1773C42.122 56.1132 42.0468 55.7924 41.3023 55.7865C40.5577 55.7807 39.9149 55.9324 39.8398 56.1307C39.7646 56.329 39.6837 56.7956 39.5334 57.2448C39.3831 57.6939 37.5737 61.7536 37.1009 62.8093C36.8581 63.3459 36.65 63.7776 36.4997 64.0692C36.4766 64.1159 36.4592 64.145 36.4476 64.1684C36.465 64.1392 36.4766 64.11 36.4766 64.1217C36.3494 64.3725 36.2742 64.5125 36.2742 64.5125V64.5183C36.176 64.705 36.0661 64.8741 36.0141 64.8741C35.9794 64.8741 35.9043 64.3842 36.0314 63.7134C36.3031 62.3018 36.9448 60.1087 36.939 60.0329C36.9332 59.992 37.0604 59.6129 36.517 59.4087C35.991 59.2163 35.8002 59.5371 35.754 59.5371C35.7077 59.5371 35.673 59.6537 35.673 59.6537C35.673 59.6537 36.2569 57.1806 34.5516 57.1806C33.4879 57.1806 32.0081 58.3588 31.2809 59.4262C30.8242 59.6771 29.8357 60.2195 28.7952 60.797L27.5986 61.4619C27.5697 61.4328 27.5466 61.4036 27.5177 61.3744C25.4482 59.1463 21.6283 57.5714 21.7902 54.5791C21.848 53.4884 22.2237 50.6245 29.1362 47.1481C34.8013 44.3016 39.3299 45.0832 40.1103 46.8214C41.2317 49.3004 37.6882 53.9142 31.8058 54.5791C29.5629 54.83 28.3848 53.955 28.0899 53.6284C27.7836 53.2842 27.7373 53.2667 27.6217 53.3309C27.4309 53.4359 27.5523 53.7392 27.6217 53.92C27.7951 54.3808 28.5177 55.1974 29.749 55.6057C30.83 55.9615 33.459 56.1598 36.6373 54.9174C40.2086 53.5292 42.9891 49.662 42.1728 46.4248C41.3427 43.1351 35.9366 42.056 30.8254 43.8875C27.7789 44.9783 24.4851 46.6931 22.1162 48.9271C19.301 51.5869 18.8513 53.9025 19.0362 54.8708C19.6952 58.3063 24.388 60.5462 26.2656 62.2027L26.0054 62.3485C25.0632 62.821 21.4861 64.7108 20.5901 66.7057C19.5785 68.9688 20.7577 70.5903 21.5312 70.812C23.9475 71.4886 26.4205 70.2695 27.75 68.2689C29.0796 66.2682 28.9177 63.6551 28.305 62.4652C28.2992 62.4477 28.2876 62.436 28.2819 62.4185C28.9755 62.0039 29.675 61.5995 30.3802 61.2053C30.149 61.8352 29.9814 62.5935 29.8947 63.6901C29.7906 64.9733 30.3167 66.6357 30.9988 67.2889C31.2994 67.5747 31.6624 67.5806 31.889 67.5806C32.6867 67.5806 33.0451 66.9156 33.444 66.1224C33.9354 65.1541 34.3689 64.0284 34.3689 64.0284C34.3689 64.0284 33.8255 67.0731 35.3112 67.0731C35.8546 67.0731 36.3979 66.3673 36.6407 66.0057V66.0115C36.6407 66.0115 36.6523 65.9882 36.6812 65.9416C36.739 65.8541 36.7679 65.8016 36.7679 65.8016V65.7841C36.9876 65.4049 37.4674 64.5358 38.1899 63.1009C39.1264 61.2461 40.0213 58.9305 40.0213 58.9305C40.108 59.4391 40.2282 59.9419 40.3797 60.4353C40.5415 60.9895 40.8826 61.5961 41.1543 62.1852C40.9346 62.4885 40.8017 62.6635 40.8017 62.6635C40.8017 62.6682 40.804 62.6716 40.8074 62.6751C40.634 62.9085 40.4375 63.1593 40.2352 63.4043C39.4964 64.2909 38.6166 65.3058 38.5009 65.5974C38.3622 65.9416 38.3969 66.1982 38.6628 66.3965C38.8593 66.5482 39.2062 66.5715 39.5704 66.5423C40.2351 66.4957 40.7034 66.3324 40.9288 66.2274C41.3447 66.077 41.7377 65.8689 42.0965 65.6091C42.8191 65.0725 43.2584 64.3025 43.218 63.2876C43.1949 62.7276 43.0157 62.1677 42.796 61.6427C42.8596 61.5494 42.9289 61.4502 42.9925 61.3511C43.7448 60.2185 44.4226 59.0374 45.0216 57.8152C45.1083 58.3238 45.2273 58.8266 45.38 59.3201C45.5187 59.7926 45.7904 60.3117 46.039 60.8191C44.9637 61.6999 44.299 62.7206 44.0689 63.3914C43.6411 64.6338 43.9764 65.1938 44.6065 65.3221C44.8898 65.3804 45.2944 65.2463 45.595 65.1179C46.0413 64.9675 46.4621 64.7493 46.8425 64.4705C47.5651 63.9339 48.2645 63.1814 48.2171 62.1607C48.1998 61.6999 48.0726 61.2391 47.905 60.7958C48.8125 60.4108 49.9918 60.2009 51.4948 60.3758C54.7134 60.755 55.3435 62.7848 55.2221 63.6306C55.1007 64.4763 54.4244 64.9488 54.199 65.0888C53.9735 65.2288 53.9041 65.2813 53.9215 65.3863C53.9504 65.5379 54.0544 65.5321 54.2452 65.4971C54.5111 65.4504 55.9332 64.8088 55.9968 63.2398C56.0892 61.2566 54.199 59.0751 50.8519 59.0926L50.8496 59.0938ZM26.0401 67.5339C24.9765 68.7063 23.4862 69.1496 22.8445 68.7763C22.1566 68.3727 22.4283 66.6473 23.7394 65.3979C24.5371 64.6397 25.5661 63.9397 26.2482 63.5081C26.4043 63.4148 26.6297 63.2748 26.9072 63.1056C26.9298 63.091 26.9529 63.0774 26.9766 63.0648C27.0286 63.0298 27.0864 63.0006 27.1442 62.9656C27.6229 64.7388 27.1616 66.3032 26.0401 67.5339ZM33.807 62.2027C33.4371 63.1184 32.6578 65.4516 32.1827 65.3291C31.778 65.2241 31.5294 63.4451 32.1017 61.6952C32.3908 60.8145 33.0035 59.7646 33.3677 59.3563C33.9516 58.6971 34.5932 58.4872 34.7435 58.7496C34.9458 59.0938 34.0383 61.6311 33.807 62.2027ZM40.2236 65.2941C40.0675 65.3758 39.923 65.4283 39.8536 65.3874C39.8016 65.3583 39.9172 65.2474 39.9172 65.2474C39.9172 65.2474 40.7207 64.3783 41.0387 63.9817C41.2236 63.7484 41.4375 63.4743 41.6688 63.1709C41.6688 63.2001 41.6745 63.2293 41.6745 63.2643C41.6676 64.3084 40.6745 65.0141 40.2236 65.2941ZM45.1719 64.1567C45.0562 64.075 45.0736 63.8009 45.4609 62.9493C45.6112 62.6168 45.958 62.0569 46.5592 61.5202C46.6274 61.7232 46.6644 61.9355 46.669 62.1502C46.6633 63.4626 45.7326 63.9525 45.1719 64.1567Z" fill="#282C33"/>
</g>
<defs>
<filter id="filter0_d_488_685" x="-25" y="0" width="125" height="125" filterUnits="userSpaceOnUse" color-interpolation-filters="sRGB">
<feFlood flood-opacity="0" result="BackgroundImageFix"/>
<feColorMatrix in="SourceAlpha" type="matrix" values="0 0 0 0 0 0 0 0 0 0 0 0 0 0 0 0 0 0 127 0" result="hardAlpha"/>
<feOffset dy="6"/>
<feGaussianBlur stdDeviation="20"/>
<feComposite in2="hardAlpha" operator="out"/>
<feColorMatrix type="matrix" values="0 0 0 0 0.439216 0 0 0 0 0.564706 0 0 0 0 0.690196 0 0 0 0.2 0"/>
<feBlend mode="normal" in2="BackgroundImageFix" result="effect1_dropShadow_488_685"/>
<feBlend mode="normal" in="SourceGraphic" in2="effect1_dropShadow_488_685" result="shape"/>
</filter>
<clipPath id="clip0_488_685">
<rect width="45" height="45" fill="white" transform="translate(15 34)"/>
</clipPath>
</defs>
</svg>
