<svg width="75" height="94" viewBox="0 0 75 94" fill="none" xmlns="http://www.w3.org/2000/svg">
<g clip-path="url(#clip0_313_1302)" filter="url(#filter0_d_313_1302)">
<rect x="15" y="34" width="45" height="45" rx="1" fill="#C778DD"/>
<path d="M23.0131 48.8948L23 50.579H28.3866V65.7889H32.197V50.579H37.5836V48.9274C37.5836 48.0135 37.564 47.2497 37.5377 47.2301C37.5179 47.2041 34.2399 47.1909 30.2656 47.1975L23.033 47.2171L23.0131 48.8948ZM47.2553 47.1693C48.3063 47.4305 49.1078 47.8939 49.8436 48.6511C50.2246 49.0559 50.7894 49.7936 50.8355 49.9698C50.8486 50.022 49.0487 51.2232 47.9582 51.8955C47.9188 51.9217 47.761 51.7519 47.5837 51.4908C47.0516 50.7205 46.4933 50.3875 45.6392 50.3289C44.3845 50.2439 43.5766 50.8968 43.5832 51.9869C43.5832 52.3068 43.6291 52.496 43.7605 52.7572C44.0363 53.3251 44.5488 53.6645 46.1583 54.3565C49.1209 55.623 50.3887 56.4585 51.1771 57.6465C52.0574 58.9717 52.2544 61.0868 51.6566 62.66C50.9998 64.3702 49.3705 65.5322 47.0778 65.9174C46.3685 66.0415 44.6867 66.0219 43.9248 65.8848C42.2627 65.591 40.6862 64.7751 39.714 63.7045C39.3329 63.2867 38.5906 62.1965 38.6366 62.1181C38.6562 62.0921 38.8271 61.9877 39.0175 61.8767C39.2015 61.7723 39.8979 61.374 40.5548 60.9954L41.7438 60.3099L41.9934 60.6755C42.3416 61.2042 43.1035 61.9289 43.5635 62.1703C44.8838 62.8624 46.697 62.7644 47.5903 61.9681C47.9713 61.622 48.129 61.263 48.129 60.7343C48.129 60.2577 48.0698 60.0488 47.8202 59.6898C47.4983 59.2329 46.8415 58.8477 44.9757 58.0448C42.8408 57.1308 41.9211 56.5629 41.0803 55.662C40.5942 55.1399 40.1343 54.3042 39.9438 53.6057C39.7862 53.0248 39.7468 51.5691 39.8716 50.9816C40.3116 48.9319 41.8686 47.5023 44.1152 47.0778C44.8445 46.9408 46.5392 46.993 47.2553 47.1693Z" fill="#282C33"/>
</g>
<defs>
<filter id="filter0_d_313_1302" x="-25" y="0" width="125" height="125" filterUnits="userSpaceOnUse" color-interpolation-filters="sRGB">
<feFlood flood-opacity="0" result="BackgroundImageFix"/>
<feColorMatrix in="SourceAlpha" type="matrix" values="0 0 0 0 0 0 0 0 0 0 0 0 0 0 0 0 0 0 127 0" result="hardAlpha"/>
<feOffset dy="6"/>
<feGaussianBlur stdDeviation="20"/>
<feComposite in2="hardAlpha" operator="out"/>
<feColorMatrix type="matrix" values="0 0 0 0 0.439216 0 0 0 0 0.564706 0 0 0 0 0.690196 0 0 0 0.2 0"/>
<feBlend mode="normal" in2="BackgroundImageFix" result="effect1_dropShadow_313_1302"/>
<feBlend mode="normal" in="SourceGraphic" in2="effect1_dropShadow_313_1302" result="shape"/>
</filter>
<clipPath id="clip0_313_1302">
<rect width="45" height="45" fill="white" transform="translate(15 34)"/>
</clipPath>
</defs>
</svg>
