<svg width="75" height="94" viewBox="0 0 75 94" fill="none" xmlns="http://www.w3.org/2000/svg">
<g clip-path="url(#clip0_313_1340)" filter="url(#filter0_d_313_1340)">
<rect x="15" y="34" width="45" height="45" fill="#C778DD"/>
<path d="M44 69.1345C43.9 69.1336 43.9 69.1336 43.9 69.1335L43.9 69.1343L43.8997 69.1402C43.8995 69.1457 43.8989 69.1544 43.8978 69.1657C43.8955 69.1885 43.891 69.2217 43.882 69.2615C43.8668 69.3293 43.8393 69.4145 43.7896 69.5001C43.6413 69.5376 43.4478 69.5475 43.1939 69.5092L42.9173 69.4674L43.1047 69.675L43.1553 69.7311L43.1553 69.7312L43.1581 69.7341C43.2042 69.7812 43.2513 69.8225 43.2988 69.8587C43.168 69.8933 43.0074 69.909 42.8097 69.8948L24.321 52.9353L24.3214 52.9348L24.3126 52.9283L24.3125 52.9283L24.3124 52.9282L24.3124 52.9282L24.3123 52.9281L24.312 52.9279L24.3084 52.9251C24.305 52.9224 24.2996 52.918 24.2928 52.9121C24.2791 52.9001 24.2598 52.882 24.2386 52.8584C24.1957 52.8107 24.1481 52.7438 24.1213 52.6626C24.0952 52.5833 24.0882 52.4884 24.1284 52.3786C24.1691 52.2673 24.2611 52.1334 24.4461 51.9835L24.4462 51.9836L24.4502 51.98L26.2637 50.3418L26.2639 50.3421L26.2693 50.3363C26.2693 50.3363 26.2693 50.3363 26.2693 50.3363L26.2694 50.3363L26.2694 50.3362L26.2695 50.3361L26.2699 50.3357L26.2732 50.3324C26.2763 50.3292 26.2813 50.3244 26.288 50.3182C26.3014 50.3058 26.3215 50.2881 26.3474 50.2681C26.3997 50.2278 26.4734 50.1795 26.5612 50.145C26.6488 50.1106 26.748 50.0909 26.8535 50.1042C26.9579 50.1174 27.075 50.1638 27.1983 50.2718L27.1982 50.272L27.2035 50.276L31.8596 53.8372L31.8447 53.8509L31.9392 53.9233L36.0567 57.0794L36.1177 57.1261L36.1387 57.11L43.9 63.046V69.1345H44ZM44 69.1345V62.9966L43.9246 69.4537C43.9988 69.2811 44 69.1345 44 69.1345ZM43.7391 69.8611C43.8114 69.8032 43.8702 69.7383 43.9176 69.6708C43.9547 69.6584 43.9898 69.6442 44.0231 69.6285C44.2309 69.5302 44.3556 69.3761 44.4328 69.2205L44.4335 69.219C44.5092 69.0597 44.548 68.8855 44.5473 68.7092V68.7092H44.4473L44.5473 68.7088L43.7391 69.8611ZM43.7391 69.8611C43.8002 69.8788 43.8586 69.8892 43.9121 69.8947C44.0006 69.9038 44.076 69.8997 44.1288 69.8934C44.1551 69.8903 44.1757 69.8866 44.1892 69.8838C44.1932 69.883 44.1966 69.8823 44.1993 69.8817M43.7391 69.8611C43.7076 69.8863 43.6735 69.9103 43.6367 69.9325L43.686 44.1377M43.686 44.1377C43.9828 44.0638 44.3807 44.0776 44.8568 44.3715L44.8565 44.372L44.8659 44.3765L50.1449 46.9183L50.1445 46.919L50.1561 46.9229L50.1562 46.9229L50.1562 46.923L50.1882 46.8282M43.686 44.1377C43.6767 44.1365 43.6675 44.1354 43.6583 44.1344L44.4473 45.0385C44.2663 44.535 44.0135 44.3244 43.7696 44.2566C43.7521 44.2344 43.7335 44.2124 43.7139 44.191C43.6989 44.1746 43.6832 44.1584 43.6669 44.1426C43.6732 44.141 43.6796 44.1393 43.686 44.1377ZM50.1882 46.8282L50.1563 46.923L50.1573 46.9233L50.1626 46.9253C50.1676 46.9271 50.1752 46.93 50.1852 46.9341C50.2052 46.9422 50.2343 46.9548 50.2696 46.9724C50.3403 47.0078 50.4343 47.0625 50.5279 47.1397C50.7145 47.2937 50.8947 47.5325 50.8947 47.887V65.7888V65.7971L50.896 65.8047L50.896 65.8048L50.8961 65.805L50.8961 65.8051C50.8961 65.8052 50.8961 65.8052 50.9947 65.7888M50.1882 46.8282L44.9093 44.2864L44.2337 69.9762M50.1882 46.8282C50.1882 46.8282 50.9947 47.1001 50.9947 47.887V65.7888M50.9947 65.7888L50.8961 65.8052L50.8965 65.8086C50.897 65.8121 50.8976 65.8179 50.8982 65.8259C50.8994 65.8417 50.9006 65.8661 50.8997 65.8973C50.898 65.9598 50.8884 66.0498 50.8563 66.1555C50.793 66.3642 50.6404 66.6406 50.274 66.8918M50.9947 65.7888C50.9947 65.7888 51.1042 66.4475 50.3246 66.9783M50.274 66.8918L44.1993 69.8817M50.274 66.8918L50.2804 66.8886L50.3246 66.9783M50.274 66.8918C50.2721 66.8931 50.2702 66.8944 50.2683 66.8957L50.3246 66.9783M44.1993 69.8817L44.1895 69.8865L44.2337 69.9762M44.1993 69.8817C44.2012 69.8812 44.2027 69.8809 44.2039 69.8806L44.207 69.8798L44.2071 69.8798L44.2337 69.9762M44.2337 69.9762L50.3246 66.9783M43.467 69.7333C43.5055 69.7339 43.5428 69.7332 43.5788 69.7314C43.561 69.744 43.5421 69.7562 43.522 69.7679C43.5037 69.7572 43.4853 69.7457 43.467 69.7333ZM36.1382 56.8578L32.1704 53.8231L42.5497 44.2796C42.8126 44.1196 43.0181 44.0834 43.1768 44.1062C43.1927 44.1085 43.2083 44.1114 43.2235 44.1149C43.1662 44.1491 43.1167 44.1834 43.0755 44.2147C43.028 44.2509 42.9913 44.2832 42.9662 44.3069C42.9536 44.3188 42.9439 44.3285 42.9371 44.3354L42.9291 44.3438L42.9268 44.3463L42.9261 44.3471L42.9258 44.3474L42.9257 44.3475C42.9257 44.3475 42.9257 44.3476 43 44.4144L42.9257 44.3476L43.0578 44.495L43.0583 44.4957L43.0583 44.4957L43.0584 44.4956L43.0597 44.4947L43.0663 44.4903C43.0724 44.4862 43.0818 44.4802 43.0942 44.4727C43.119 44.4578 43.1555 44.4375 43.2007 44.417C43.292 44.3754 43.4149 44.3345 43.5485 44.3304C43.5556 44.3302 43.5628 44.33 43.57 44.33C43.6701 44.4408 43.7408 44.5723 43.7869 44.679C43.81 44.7325 43.8265 44.7787 43.8371 44.8113C43.8424 44.8275 43.8462 44.8403 43.8486 44.8488L43.8489 44.8498L43.8996 50.8705L36.1382 56.8578ZM24.266 61.0695L28.5384 57.1359L31.8448 60.1767L27.3379 63.6375L27.3379 63.6375L27.3346 63.6402C27.0041 63.9171 26.7409 63.9251 26.5669 63.8782C26.4769 63.8539 26.4056 63.8134 26.3568 63.7789C26.3325 63.7617 26.3141 63.7463 26.3022 63.7355C26.2963 63.7301 26.292 63.726 26.2894 63.7234L26.2868 63.7208L26.2871 63.7206L26.281 63.7149L24.273 61.8653C24.0729 61.5922 24.0823 61.3949 24.1253 61.2721C24.1482 61.2069 24.1827 61.1567 24.2116 61.1227C24.226 61.1058 24.2388 61.0933 24.2475 61.0853C24.2518 61.0814 24.2551 61.0786 24.257 61.077L24.2584 61.0758L24.2587 61.0762L24.266 61.0695Z" fill="#282C33" stroke="#C778DD" stroke-width="0.2"/>
</g>
<defs>
<filter id="filter0_d_313_1340" x="-25" y="0" width="125" height="125" filterUnits="userSpaceOnUse" color-interpolation-filters="sRGB">
<feFlood flood-opacity="0" result="BackgroundImageFix"/>
<feColorMatrix in="SourceAlpha" type="matrix" values="0 0 0 0 0 0 0 0 0 0 0 0 0 0 0 0 0 0 127 0" result="hardAlpha"/>
<feOffset dy="6"/>
<feGaussianBlur stdDeviation="20"/>
<feComposite in2="hardAlpha" operator="out"/>
<feColorMatrix type="matrix" values="0 0 0 0 0.439216 0 0 0 0 0.564706 0 0 0 0 0.690196 0 0 0 0.2 0"/>
<feBlend mode="normal" in2="BackgroundImageFix" result="effect1_dropShadow_313_1340"/>
<feBlend mode="normal" in="SourceGraphic" in2="effect1_dropShadow_313_1340" result="shape"/>
</filter>
<clipPath id="clip0_313_1340">
<rect width="45" height="45" fill="white" transform="translate(15 34)"/>
</clipPath>
</defs>
</svg>
