<svg width="54" height="54" viewBox="0 0 54 54" fill="none" xmlns="http://www.w3.org/2000/svg">
<g clip-path="url(#clip0_199_1546)">
<g clip-path="url(#clip1_199_1546)">
<rect x="0.5" y="0.5" width="53" height="53" fill="#C778DD" stroke="#C778DD"/>
<path d="M33.3051 11.9761C30.1648 11.2465 26.8991 11.2465 23.7588 11.9761C21.9452 10.8638 20.5605 10.3526 19.5535 10.1368C19.1237 10.0398 18.6839 9.99406 18.2433 10.0006C18.0428 10.006 17.8433 10.0301 17.6473 10.0725L17.6216 10.0777L17.6113 10.0828H17.6036L17.9556 11.3185L17.6036 10.0854C17.4232 10.1364 17.256 10.2263 17.114 10.3488C16.972 10.4713 16.8585 10.6234 16.7816 10.7944C16.0237 12.4917 15.8793 14.3997 16.3731 16.1918C15.0941 17.7418 14.3971 19.6901 14.4027 21.6996C14.4027 25.6892 15.5793 28.3712 17.5856 30.0949C18.9909 31.3024 20.6966 31.9446 22.4076 32.312C22.1383 33.1027 22.0368 33.9409 22.1096 34.773V36.3092C21.064 36.5276 20.3396 36.4582 19.8232 36.2887C19.1784 36.0755 18.6826 35.6465 18.2073 35.0299C17.9589 34.6976 17.7274 34.3529 17.5137 33.9972L17.3673 33.7583C17.1824 33.4508 16.9905 33.1476 16.7918 32.8489C16.3037 32.127 15.5793 31.2227 14.4079 30.9144L13.1645 30.5882C13.1645 30.5882 12.2641 30.5882 12.0813 31.1044C11.8984 31.6207 12.0813 31.9659 12.0813 31.9659L12.512 32.3966L13.8041 33.258C14.0096 33.3093 14.228 33.6452 14.6673 34.29C14.8364 34.5446 14.9992 34.8033 15.1554 35.0659L15.3301 35.3485C15.5716 35.7389 15.849 36.1705 16.1702 36.5918C16.8201 37.4396 17.7064 38.295 19.0217 38.7292C19.9208 39.0272 20.9433 39.0991 22.1096 38.9193V43.7155C22.1096 44.0562 22.2449 44.3829 22.4858 44.6238C22.7267 44.8647 23.0534 45 23.394 45H33.6699C34.0105 45 34.3372 44.8647 34.5781 44.6238C34.819 44.3829 34.9543 44.0562 34.9543 43.7155V34.5624C34.9543 33.7531 34.9184 33.0107 34.6897 32.3197C36.3929 31.96 38.0859 31.3178 39.4834 30.1104C41.4872 28.3738 42.6612 25.6661 42.6612 21.6534V21.6508C42.6547 19.6577 41.9575 17.7285 40.6882 16.1918C41.1814 14.4005 41.0371 12.4936 40.2798 10.797C40.2034 10.6258 40.0904 10.4733 39.9489 10.3504C39.8073 10.2275 39.6405 10.137 39.4603 10.0854L39.1083 11.3185C39.4603 10.0854 39.4577 10.0854 39.4551 10.0854L39.45 10.0828L39.4397 10.0777L39.4166 10.0725C39.3532 10.056 39.2888 10.0432 39.2239 10.034C39.0895 10.0144 38.9539 10.0032 38.818 10.0006C38.3775 9.99411 37.9377 10.0398 37.5079 10.1368C36.5034 10.3526 35.1187 10.8638 33.3051 11.9761Z" fill="#282C33"/>
</g>
</g>
<defs>
<clipPath id="clip0_199_1546">
<rect width="54" height="54" fill="white"/>
</clipPath>
<clipPath id="clip1_199_1546">
<rect width="54" height="54" fill="white"/>
</clipPath>
</defs>
</svg>
