<svg width="94" height="108" viewBox="0 0 94 108" fill="none" xmlns="http://www.w3.org/2000/svg">
<g clip-path="url(#clip0_2_262)" filter="url(#filter0_d_2_262)">
<g clip-path="url(#clip1_2_262)">
<rect x="20.5" y="34.5" width="53" height="53" fill="#C778DD" stroke="#C778DD"/>
<path d="M37.06 54.12C38.76 54.12 40.12 52.7387 40.12 51.06C40.12 49.3813 38.7387 48 37.06 48C35.3813 48 34 49.3813 34 51.06C34 52.7387 35.3813 54.12 37.06 54.12ZM43.0312 56.4362V73.4788H48.3012V65.0637C48.3012 62.8325 48.7263 60.6863 51.4675 60.6863C54.2087 60.6863 54.2087 63.2362 54.2087 65.1912V73.4788H59.5V64.1287C59.5 59.5387 58.5225 56.0113 53.1675 56.0113C50.5963 56.0113 48.875 57.4138 48.1737 58.7525H48.11V56.415H43.0525L43.0312 56.4362ZM34.425 56.4362H39.7162V73.4788H34.425V56.4362Z" fill="#282C33"/>
</g>
</g>
<defs>
<filter id="filter0_d_2_262" x="-20" y="0" width="134" height="134" filterUnits="userSpaceOnUse" color-interpolation-filters="sRGB">
<feFlood flood-opacity="0" result="BackgroundImageFix"/>
<feColorMatrix in="SourceAlpha" type="matrix" values="0 0 0 0 0 0 0 0 0 0 0 0 0 0 0 0 0 0 127 0" result="hardAlpha"/>
<feOffset dy="6"/>
<feGaussianBlur stdDeviation="20"/>
<feComposite in2="hardAlpha" operator="out"/>
<feColorMatrix type="matrix" values="0 0 0 0 0.439216 0 0 0 0 0.564706 0 0 0 0 0.690196 0 0 0 0.2 0"/>
<feBlend mode="normal" in2="BackgroundImageFix" result="effect1_dropShadow_2_262"/>
<feBlend mode="normal" in="SourceGraphic" in2="effect1_dropShadow_2_262" result="shape"/>
</filter>
<clipPath id="clip0_2_262">
<rect width="54" height="54" fill="white" transform="translate(20 34)"/>
</clipPath>
<clipPath id="clip1_2_262">
<rect width="54" height="54" fill="white" transform="translate(20 34)"/>
</clipPath>
</defs>
</svg>
