<svg width="54" height="54" viewBox="0 0 54 54" fill="none" xmlns="http://www.w3.org/2000/svg">
<g clip-path="url(#clip0_28_110)">
<rect x="1" y="1" width="52" height="52" stroke="#C778DD" stroke-width="2"/>
<g clip-path="url(#clip1_28_110)">
<path d="M15.6141 8.86457L15.6294 8.87467L15.6454 8.88362C26.1686 14.7758 33.1118 18.6612 37.5581 21.1483L32.415 26.2914L14.6353 8.51169C14.9684 8.54549 15.3027 8.65892 15.6141 8.86457Z" fill="#C778DD" stroke="#282C33"/>
<path d="M12.2478 10.6718C12.2478 9.80262 12.7283 9.11662 13.3949 8.75526C13.4101 8.74721 13.4255 8.73934 13.441 8.73163L31.7079 26.9985L13.441 45.2653C13.4254 45.2576 13.4101 45.2497 13.3948 45.2416C12.7282 44.8804 12.2478 44.1944 12.2478 43.3252V10.6718Z" fill="#C778DD" stroke="#282C33"/>
<path d="M15.6453 45.1134L15.6279 45.1232L15.6114 45.1343C15.2999 45.3429 14.9652 45.4566 14.6313 45.4892L32.415 27.7056L37.564 32.8547C33.0896 35.3502 26.137 39.2385 15.6453 45.1134Z" fill="#C778DD" stroke="#282C33"/>
<path d="M12.2478 43.3252V27.4985H31.2079L13.441 45.2653C13.4254 45.2576 13.4101 45.2497 13.3948 45.2417C12.7282 44.8804 12.2478 44.1944 12.2478 43.3252Z" fill="#C778DD" stroke="#282C33"/>
<path d="M15.6141 8.86463L15.6294 8.87471L15.6454 8.88365C26.1686 14.7758 33.1118 18.6612 37.5581 21.1483L32.1288 26.5776L14.0781 8.5268C14.5846 8.44626 15.1281 8.54368 15.6141 8.86463Z" fill="#C778DD" stroke="#282C33"/>
<path d="M15.6454 45.1135L15.628 45.1232L15.6114 45.1343C15.127 45.4588 14.584 45.5547 14.0766 45.4718L32.129 27.4196L37.564 32.8548C33.0896 35.3502 26.137 39.2385 15.6454 45.1135Z" fill="#C778DD" stroke="#282C33"/>
<path d="M44.6467 25.1108C44.6468 25.1108 44.6468 25.1108 44.6469 25.1108C45.3812 25.5219 45.7522 26.2603 45.7522 26.9985C45.7522 27.7368 45.3812 28.4753 44.6467 28.8862L44.6461 28.8865L44.6422 28.8887L44.6265 28.8974L44.5623 28.9333L44.2945 29.0828C44.0508 29.2189 43.6725 29.4304 43.1339 29.7318C42.1037 30.3085 40.4869 31.2145 38.1038 32.5524L32.5499 26.9985L38.0982 21.4503C40.5083 22.7983 42.1273 23.7033 43.1526 24.2762L44.3017 24.9181L44.5644 25.0648L44.627 25.0997L44.6422 25.1083L44.646 25.1104L44.6467 25.1108Z" fill="#C778DD" stroke="#282C33"/>
<path d="M38.1038 32.5524L33.0499 27.4985H45.6947C45.5646 28.0559 45.2141 28.5688 44.6467 28.8863L44.6462 28.8866L44.6423 28.8888L44.6266 28.8975L44.5624 28.9333L44.2946 29.0829C44.0509 29.219 43.6726 29.4305 43.134 29.7319C42.1037 30.3086 40.4869 31.2146 38.1038 32.5524Z" fill="#C778DD" stroke="#282C33"/>
</g>
</g>
<defs>
<clipPath id="clip0_28_110">
<rect width="54" height="54" fill="white"/>
</clipPath>
<clipPath id="clip1_28_110">
<rect width="38" height="38" fill="white" transform="translate(10 8)"/>
</clipPath>
</defs>
</svg>
