<svg width="94" height="108" viewBox="0 0 94 108" fill="none" xmlns="http://www.w3.org/2000/svg">
<g clip-path="url(#clip0_127_179)" filter="url(#filter0_d_127_179)">
<rect x="20.5" y="34.5" width="53" height="53" fill="#C778DD" stroke="#C778DD"/>
<g clip-path="url(#clip1_127_179)">
<path d="M35.6141 42.8646L35.6294 42.8747L35.6454 42.8836C46.1686 48.7758 53.1118 52.6612 57.5581 55.1483L52.415 60.2914L34.6353 42.5117C34.9684 42.5455 35.3027 42.6589 35.6141 42.8646Z" fill="#282C33" stroke="#C778DD"/>
<path d="M32.2478 44.6718C32.2478 43.8026 32.7283 43.1166 33.3949 42.7553C33.4101 42.7472 33.4255 42.7393 33.441 42.7316L51.7079 60.9985L33.441 79.2653C33.4254 79.2576 33.4101 79.2497 33.3948 79.2416C32.7282 78.8804 32.2478 78.1944 32.2478 77.3252V44.6718Z" fill="#282C33" stroke="#C778DD"/>
<path d="M35.6453 79.1134L35.6279 79.1232L35.6114 79.1343C35.2999 79.3429 34.9652 79.4566 34.6313 79.4892L52.415 61.7056L57.564 66.8547C53.0896 69.3502 46.137 73.2385 35.6453 79.1134Z" fill="#282C33" stroke="#C778DD"/>
<path d="M32.2478 77.3252V61.4985H51.2079L33.441 79.2653C33.4254 79.2576 33.4101 79.2497 33.3948 79.2417C32.7282 78.8804 32.2478 78.1944 32.2478 77.3252Z" fill="#282C33" stroke="#C778DD"/>
<path d="M35.6141 42.8646L35.6294 42.8747L35.6454 42.8837C46.1686 48.7758 53.1118 52.6612 57.5581 55.1483L52.1288 60.5776L34.0781 42.5268C34.5846 42.4463 35.1281 42.5437 35.6141 42.8646Z" fill="#282C33" stroke="#C778DD"/>
<path d="M35.6454 79.1135L35.628 79.1232L35.6114 79.1343C35.127 79.4588 34.584 79.5547 34.0766 79.4718L52.129 61.4196L57.564 66.8548C53.0896 69.3502 46.137 73.2385 35.6454 79.1135Z" fill="#282C33" stroke="#C778DD"/>
<path d="M64.6467 59.1108C64.6468 59.1108 64.6468 59.1108 64.6469 59.1108C65.3812 59.5219 65.7522 60.2603 65.7522 60.9985C65.7522 61.7368 65.3812 62.4753 64.6467 62.8862L64.6461 62.8865L64.6422 62.8887L64.6265 62.8974L64.5623 62.9333L64.2945 63.0828C64.0508 63.2189 63.6725 63.4304 63.1339 63.7318C62.1037 64.3085 60.4869 65.2145 58.1038 66.5524L52.5499 60.9985L58.0982 55.4503C60.5083 56.7983 62.1273 57.7033 63.1526 58.2762L64.3017 58.9181L64.5644 59.0648L64.627 59.0997L64.6422 59.1083L64.646 59.1104L64.6467 59.1108Z" fill="#282C33" stroke="#C778DD"/>
<path d="M58.1038 66.5524L53.0499 61.4985H65.6947C65.5646 62.0559 65.2141 62.5688 64.6467 62.8863L64.6462 62.8866L64.6423 62.8888L64.6266 62.8975L64.5624 62.9333L64.2946 63.0829C64.0509 63.219 63.6726 63.4305 63.134 63.7319C62.1037 64.3086 60.4869 65.2146 58.1038 66.5524Z" fill="#282C33" stroke="#C778DD"/>
</g>
</g>
<defs>
<filter id="filter0_d_127_179" x="-20" y="0" width="134" height="134" filterUnits="userSpaceOnUse" color-interpolation-filters="sRGB">
<feFlood flood-opacity="0" result="BackgroundImageFix"/>
<feColorMatrix in="SourceAlpha" type="matrix" values="0 0 0 0 0 0 0 0 0 0 0 0 0 0 0 0 0 0 127 0" result="hardAlpha"/>
<feOffset dy="6"/>
<feGaussianBlur stdDeviation="20"/>
<feComposite in2="hardAlpha" operator="out"/>
<feColorMatrix type="matrix" values="0 0 0 0 0.439216 0 0 0 0 0.564706 0 0 0 0 0.690196 0 0 0 0.2 0"/>
<feBlend mode="normal" in2="BackgroundImageFix" result="effect1_dropShadow_127_179"/>
<feBlend mode="normal" in="SourceGraphic" in2="effect1_dropShadow_127_179" result="shape"/>
</filter>
<clipPath id="clip0_127_179">
<rect width="54" height="54" fill="white" transform="translate(20 34)"/>
</clipPath>
<clipPath id="clip1_127_179">
<rect width="38" height="38" fill="white" transform="translate(30 42)"/>
</clipPath>
</defs>
</svg>
